#!OML:ASF H:\Terrain\Patient Classification 1\Takeo\Monday\TakeoMonday.ASF
:FULLY-SPECIFIED
:DEGREES
1
root 10.3808 17.7602 -0.165119 -7.71422 3.73178 -1.80257
lowerback 5.76793 -2.05373 -1.52054
upperback 2.22998 -2.8203 -0.317691
thorax -0.878606 -1.4142 0.7048
lowerneck -8.7725 -5.94179 -4.57938
upperneck 0.499281 -7.64972 6.00494
head 2.14269 -3.67941 2.37385
rclavicle 2.50717e-014 -7.55382e-015
rhumerus -37.1502 -2.71435 -87.4237
rradius 27.4149
rwrist -10.4128
rhand -23.1146 20.012
rfingers 7.12502
rthumb 3.33241 -9.9417
lclavicle 2.50717e-014 -7.55382e-015
lhumerus -34.4492 8.60131 86.9019
lradius 22.8727
lwrist 16.6241
lhand -26.2312 16.3034
lfingers 7.12502
lthumb 0.322449 46.2829
rfemur -2.85468 7.17623 17.0598
rtibia 17.5438
rfoot -5.56785 -10.9861
rtoes -4.54966
lfemur 10.9498 1.79493 -24.4131
ltibia 13.1728
lfoot -16.9138 22.9446
ltoes 3.13812
2
root 10.3826 17.7638 -0.167721 -7.79003 3.67574 -2.03757
lowerback 5.81996 -2.07217 -1.37375
upperback 2.29025 -2.83595 -0.226692
thorax -0.847799 -1.42235 0.717712
lowerneck -8.88911 -6.11683 -4.80279
upperneck 0.668868 -7.86819 6.12674
head 2.25146 -3.78293 2.43763
rclavicle -1.26042e-014 -3.57812e-015
rhumerus -37.3241 -2.35738 -87.5198
rradius 27.9462
rwrist -10.769
rhand -22.4273 17.1013
rfingers 7.12502
rthumb 3.99612 -12.841
lclavicle -1.26042e-014 -3.57812e-015
lhumerus -34.3809 8.41921 87.0231
lradius 23.1622
lwrist 16.7627
lhand -26.0317 15.0441
lfingers 7.12502
lthumb 0.51514 45.0233
rfemur -2.62997 7.20698 17.3277
rtibia 17.2078
rfoot -5.31422 -11.043
rtoes -4.76647
lfemur 10.7846 1.84025 -24.1272
ltibia 13.7006
lfoot -17.644 22.6456
ltoes 4.03658
3
root 10.3846 17.762 -0.17104 -7.87213 3.65702 -2.18419
lowerback 5.93545 -2.11646 -1.29713
upperback 2.3425 -2.89114 -0.163656
thorax -0.857602 -1.45002 0.74648
lowerneck -9.17772 -6.33923 -5.03174
upperneck 0.949856 -8.14478 6.20753
head 2.43205 -3.91272 2.47934
rclavicle -1.23619e-014 8.34896e-015
rhumerus -37.3514 -2.21456 -87.5651
rradius 28.2702
rwrist -10.8939
rhand -22.0162 16.6802
rfingers 7.12502
rthumb 4.39313 -13.2543
lclavicle -1.23619e-014 8.34896e-015
lhumerus -34.2523 7.85494 87.3663
lradius 23.5543
lwrist 17.6283
lhand -25.698 16.4781
lfingers 7.12502
lthumb 0.837424 46.4562
rfemur -2.84095 7.18409 17.4924
rtibia 17.7789
rfoot -5.54107 -11.0291
rtoes -4.99939
lfemur 11.1245 1.94085 -23.9345
ltibia 13.1568
lfoot -17.3623 22.4603
ltoes 4.10618
4
root 10.3846 17.7539 -0.178466 -7.79873 3.77179 -1.54656
lowerback 5.98517 -2.13887 -2.05698
upperback 2.36266 -2.96586 -0.320873
thorax -0.831918 -1.49043 1.01533
lowerneck -9.57062 -6.38825 -4.92306
upperneck 1.20103 -8.21305 6.1241
head 2.58256 -3.93973 2.41524
rclavicle -2.67055e-014 -1.59028e-015
rhumerus -37.1852 -2.14936 -87.6399
rradius 28.3449
rwrist -10.9786
rhand -22.0438 17.0264
rfingers 7.12502
rthumb 4.36648 -12.9086
lclavicle -2.67055e-014 -1.59028e-015
lhumerus -34.0999 7.2446 87.7741
lradius 24.0278
lwrist 19.012
lhand -25.6234 18.6895
lfingers 7.12502
lthumb 0.909438 48.6673
rfemur -3.05121 7.15689 16.7542
rtibia 18.0534
rfoot -5.88029 -10.9921
rtoes -4.84482
lfemur 11.1113 2.10664 -24.6232
ltibia 12.9118
lfoot -16.643 22.5885
ltoes 2.49364
5
root 10.3848 17.7508 -0.1851 -7.67838 3.89521 -0.989326
lowerback 5.96575 -2.16502 -2.75467
upperback 2.37088 -3.04023 -0.447903
thorax -0.779933 -1.53098 1.27735
lowerneck -9.90647 -6.37206 -4.58606
upperneck 1.43626 -8.21152 5.81112
head 2.68718 -3.93847 2.23943
rclavicle 6.67792e-015 3.97569e-016
rhumerus -36.9477 -1.91182 -87.7788
rradius 28.383
rwrist -11.1342
rhand -22.4323 17.4074
rfingers 7.12502
rthumb 3.9913 -12.535
lclavicle 6.67792e-015 3.97569e-016
lhumerus -34.0245 7.09207 87.9764
lradius 24.3615
lwrist 19.6325
lhand -25.7267 19.0761
lfingers 7.12502
lthumb 0.809692 49.0544
rfemur -3.33326 7.13182 16.094
rtibia 18.3561
rfoot -6.20428 -10.9943
rtoes -4.75839
lfemur 11.1011 2.09908 -25.2319
ltibia 12.6253
lfoot -16.4807 22.5419
ltoes 2.67048
6
root 10.39 17.7553 -0.185246 -7.71461 3.91241 -1.1788
lowerback 5.98209 -2.23344 -2.56546
upperback 2.41831 -3.12026 -0.433343
thorax -0.746438 -1.57102 1.19112
lowerneck -10.1227 -6.36632 -4.29642
upperneck 1.66119 -8.23095 5.63059
head 2.77836 -3.94612 2.11865
rclavicle -3.54147e-014 -9.93923e-015
rhumerus -36.8522 -1.75778 -87.9476
rradius 28.6014
rwrist -11.1243
rhand -23.0538 18.651
rfingers 7.12502
rthumb 3.3911 -11.3018
lclavicle -3.54147e-014 -9.93923e-015
lhumerus -34.0353 6.9398 88.0322
lradius 24.7471
lwrist 19.9059
lhand -25.5818 18.9674
lfingers 7.12502
lthumb 0.949648 48.945
rfemur -3.43808 6.99948 16.2692
rtibia 18.578
rfoot -6.18324 -10.9369
rtoes -5.14228
lfemur 11.2281 1.98019 -25.0312
ltibia 12.4519
lfoot -16.8388 22.33
ltoes 4.01106
7
root 10.3951 17.7594 -0.187405 -7.71532 3.92957 -1.29937
lowerback 6.01348 -2.28186 -2.39926
upperback 2.41588 -3.17667 -0.450734
thorax -0.774478 -1.59789 1.08571
lowerneck -10.0534 -6.37279 -4.35314
upperneck 1.74507 -8.25345 5.88311
head 2.81374 -3.95009 2.21276
rclavicle -3.89307e-014 -3.18055e-015
rhumerus -36.9517 -1.68822 -88.0519
rradius 28.9669
rwrist -11.1231
rhand -23.3713 19.4478
rfingers 7.12502
rthumb 3.08454 -10.5096
lclavicle -3.89307e-014 -3.18055e-015
lhumerus -34.042 6.57917 88.0995
lradius 25.1037
lwrist 20.3991
lhand -25.5193 18.978
lfingers 7.12502
lthumb 1.01002 48.9553
rfemur -3.43195 6.92941 16.3553
rtibia 18.5731
rfoot -6.20153 -10.9172
rtoes -4.93939
lfemur 11.159 2.01607 -24.9042
ltibia 12.5931
lfoot -17.0031 22.2294
ltoes 3.78338
